<svg width="14" height="14" fill="none" xmlns="http://www.w3.org/2000/svg"><path d="M2.85 13.367h8.293c.715 0 1.25-.178 1.606-.533.36-.35.54-.88.54-1.586V2.901c0-.706-.18-1.235-.54-1.586-.355-.355-.89-.533-1.606-.533H2.85c-.716 0-1.254.178-1.614.533-.355.351-.533.88-.533 1.586v8.347c0 .706.178 1.235.533 1.586.36.356.898.533 1.614.533ZM6.235 10.4a.682.682 0 0 1-.32-.075.886.886 0 0 1-.281-.253L3.917 7.967a1.112 1.112 0 0 1-.123-.212.694.694 0 0 1-.041-.233c0-.154.052-.287.157-.396a.508.508 0 0 1 .39-.17c.1 0 .189.02.266.06a.777.777 0 0 1 .253.233L6.207 9.04l2.919-4.69c.128-.209.292-.314.492-.314.146 0 .278.048.397.144a.448.448 0 0 1 .177.376.541.541 0 0 1-.054.232 2.48 2.48 0 0 1-.117.219L6.81 10.072a.763.763 0 0 1-.253.246.637.637 0 0 1-.322.082Z" fill="#18A0FB"/></svg>