<svg width="14" height="10" fill="none" xmlns="http://www.w3.org/2000/svg"><path d="M.267 5.064a.623.623 0 0 0 .198.458l3.65 3.576a.62.62 0 0 0 .445.184.591.591 0 0 0 .437-.164.592.592 0 0 0 .171-.437.543.543 0 0 0-.048-.233.546.546 0 0 0-.123-.184l-1.6-1.552L2.12 5.604l1.586.069h6.583l1.586-.069-1.278 1.108-1.6 1.552a.646.646 0 0 0-.13.184.622.622 0 0 0-.04.233c0 .177.054.323.163.437.114.11.262.164.445.164a.62.62 0 0 0 .444-.184l3.65-3.576a.623.623 0 0 0 .15-.704.604.604 0 0 0-.15-.212l-3.65-3.575A.61.61 0 0 0 9.434.84a.601.601 0 0 0-.445.17.582.582 0 0 0-.164.431c0 .087.014.164.041.233.032.068.075.13.13.184l1.6 1.559 1.278 1.1-1.586-.061H3.705l-1.586.062 1.278-1.101 1.6-1.559a.546.546 0 0 0 .123-.184.543.543 0 0 0 .048-.233.57.57 0 0 0-.17-.43A.578.578 0 0 0 4.56.84a.61.61 0 0 0-.445.191L.465 4.606a.604.604 0 0 0-.198.458Z" fill="#7B7A7A"/></svg>